<?xml version="1.0" encoding="UTF-8"?>
<svg version="1.1" xmlns="http://www.w3.org/2000/svg" width="512" height="512">
<path d="M0 0 C2.84520858 1.69756954 5.68745772 3.39998664 8.52880859 5.10400391 C10.94188242 6.54121206 13.36670446 7.9542256 15.80078125 9.35546875 C16.48615967 9.75403076 17.17153809 10.15259277 17.87768555 10.56323242 C19.12095893 11.28566446 20.3682336 12.00127747 21.62036133 12.70825195 C25.30424768 14.87007612 27.79719665 17.14285503 30.1875 20.6875 C30.1875 21.3475 30.1875 22.0075 30.1875 22.6875 C30.93 22.873125 31.6725 23.05875 32.4375 23.25 C36.25711063 25.24661465 37.87565285 27.69613528 39.1875 31.6875 C40.74607389 41.55846796 37.55902841 49.94444318 33.1875 58.6875 C33.08034292 60.80671454 33.03914731 62.92935255 33.02687073 65.05123901 C33.02178291 65.71166108 33.01669509 66.37208315 33.01145309 67.05251801 C32.99569889 69.27573253 32.98719585 71.49891447 32.97875977 73.72216797 C32.96922387 75.31201384 32.95933283 76.90185761 32.94911194 78.49169922 C32.91770249 83.72100351 32.89746053 88.95032386 32.87890625 94.1796875 C32.87396027 95.51309417 32.87396027 95.51309417 32.86891437 96.87343836 C32.83813773 105.25262615 32.8114233 113.63181746 32.79449558 122.01104546 C32.77257007 132.73926792 32.73055942 143.46699109 32.66105801 154.19501388 C32.61387532 161.73305588 32.58956989 169.27096288 32.5822987 176.80914795 C32.57733453 181.31432984 32.56218163 185.8189492 32.5225544 190.32397079 C32.48577434 194.56110664 32.47724938 198.79735668 32.49056053 203.03462219 C32.49050644 204.59071008 32.48015222 206.14683636 32.4588089 207.70277786 C32.43123552 209.82619365 32.44058008 211.94635412 32.45924377 214.0697937 C32.45501184 215.2581526 32.4507799 216.4465115 32.44641972 217.67088127 C32.92642686 220.96545595 32.92642686 220.96545595 36.09239101 222.96048164 C37.11377698 223.5303977 38.13516294 224.10031376 39.1875 224.6875 C44.23068417 229.73068417 45.27324896 235.56365186 45.375 242.4375 C45.34881207 245.34959759 44.97696473 247.88332127 44.1875 250.6875 C44.76757812 250.95175781 45.34765625 251.21601563 45.9453125 251.48828125 C56.23502522 256.99166418 63.34481352 266.92491596 67.1875 277.6875 C68.61590029 283.62569238 68.40871642 289.73916548 68.4375 295.8125 C68.4684375 297.40964844 68.4684375 297.40964844 68.5 299.0390625 C68.54377017 308.05571713 67.9084156 317.17797235 62.5390625 324.72265625 C59.20335103 329.57585329 59.45057987 334.39842003 59.5625 340.125 C59.54316406 341.11048828 59.52382813 342.09597656 59.50390625 343.11132812 C59.55122352 350.25150465 61.31497269 354.76863106 65.1875 360.6875 C68.66137216 368.15632514 68.37027614 375.926931 68.375 384 C68.38724609 385.08990234 68.39949219 386.17980469 68.41210938 387.30273438 C68.44058165 403.08586707 64.21477664 412.43819766 53.1875 423.6875 C52.60484375 424.30625 52.0221875 424.925 51.421875 425.5625 C36.44007711 440.13938443 13.23005668 445.72314835 -6.8125 448.6875 C-7.69164062 448.81898438 -8.57078125 448.95046875 -9.4765625 449.0859375 C-42.0615274 452.91337782 -78.2496581 447.64334738 -105.3125 428.25 C-114.8789005 420.65658848 -122.33219973 411.9784734 -124.8125 399.6875 C-125.0797509 395.25181164 -125.12567608 390.81561061 -125.16259766 386.37304688 C-125.17903791 384.9301731 -125.20616783 383.48737664 -125.24462891 382.04492188 C-125.5151662 371.8162598 -124.92509269 361.99094711 -118.17529297 353.66894531 C-115.59020083 349.91032693 -116.30087415 345.35532318 -116.3125 340.9375 C-116.28414062 339.97328125 -116.25578125 339.0090625 -116.2265625 338.015625 C-116.21024998 332.0126192 -117.07847841 328.50108436 -120.51928711 323.60888672 C-125.53260571 316.16036541 -125.31153822 307.6138204 -125.25854492 298.94091797 C-125.25004175 296.82290054 -125.27886165 294.70759581 -125.31054688 292.58984375 C-125.38203145 279.07896234 -121.87389283 268.89475947 -112.8125 258.6875 C-108.33804181 254.54307277 -103.67792711 250.84899235 -98.5 247.625 C-95.38029842 245.37591282 -93.64089859 242.90758152 -91.40234375 239.8203125 C-84.82851811 231.00137196 -76.47341799 226.25646511 -67.05371094 220.96630859 C-62.7962674 218.5370614 -58.62904799 215.95444427 -54.45874023 213.37915039 C-50.03136982 210.6875 -50.03136982 210.6875 -47.8125 210.6875 C-48.3075 158.2175 -48.3075 158.2175 -48.8125 104.6875 C-66.83381937 114.98539679 -84.84134652 125.30296308 -102.8125 135.6875 C-110.43888958 140.09316089 -118.06664884 144.49642464 -125.69824219 148.89306641 C-127.78001408 150.0925822 -129.86139241 151.29278128 -131.94238281 152.49365234 C-134.87665369 154.18606949 -137.81300238 155.87482035 -140.75 157.5625 C-141.6263208 158.06869873 -142.5026416 158.57489746 -143.40551758 159.09643555 C-144.20884521 159.55703369 -145.01217285 160.01763184 -145.83984375 160.4921875 C-146.53843506 160.89421387 -147.23702637 161.29624023 -147.95678711 161.71044922 C-151.9508998 163.81338817 -154.82012824 163.61072639 -159.234375 163.33984375 C-167.38661974 163.29697022 -172.32883265 165.91909033 -179.0625 170.25 C-180.7538312 171.28178589 -182.44519488 172.31352253 -184.1383667 173.34228516 C-185.8818287 174.40651206 -187.6169866 175.48337505 -189.3515625 176.56201172 C-194.83823908 179.95513875 -200.45935309 183.11704694 -206.0625 186.3125 C-212.48884248 190.00623636 -218.89758335 193.72603109 -225.265625 197.51953125 C-226.79461426 198.43001221 -226.79461426 198.43001221 -228.35449219 199.35888672 C-230.28469544 200.51133722 -232.21254851 201.66773579 -234.13769531 202.82861328 C-234.98944336 203.33763184 -235.84119141 203.84665039 -236.71875 204.37109375 C-237.46447266 204.82025146 -238.21019531 205.26940918 -238.97851562 205.73217773 C-240.8125 206.6875 -240.8125 206.6875 -242.8125 206.6875 C-244.14064579 238.20896006 -241.50134182 263.58950036 -227.83300781 292.22558594 C-227.15149777 293.70923854 -226.47883846 295.19697189 -225.8125 296.6875 C-225.37866501 297.65506226 -224.94483002 298.62262451 -224.49784851 299.61950684 C-219.56952919 311.37675989 -219.44365376 323.02190738 -219.22680664 335.58886719 C-219.17331836 338.32795722 -219.05479705 341.05226289 -218.87817383 343.78613281 C-217.49459021 365.67921855 -217.49459021 365.67921855 -222.96234131 372.28466797 C-228.72255165 377.14791028 -235.44560324 380.93179678 -242.8125 382.6875 C-245.8918457 382.34375 -245.8918457 382.34375 -248.8125 380.6875 C-249.65239471 380.35331558 -250.49228943 380.01913116 -251.3576355 379.67481995 C-254.36378205 378.29432605 -256.47518912 377.03754249 -258.8125 374.6875 C-260.212871 370.19438455 -260.00006085 365.88515753 -259.83203125 361.21484375 C-259.82620461 359.20531383 -259.82040451 357.19578346 -259.81608868 355.18624973 C-259.79799757 352.37534856 -259.73485078 349.56616642 -259.67126465 346.75598145 C-259.55052201 341.19449255 -259.49665213 335.63304493 -259.475317 330.07037544 C-259.4575759 328.14883499 -259.40437205 326.22772394 -259.35005188 324.30686951 C-259.25866933 315.62042808 -260.78275039 308.44280967 -264.8125 300.6875 C-267.41419696 297.87927959 -267.41419696 297.87927959 -270.625 296.4375 C-278.44518682 292.35740253 -286.12470389 288.01188531 -293.8125 283.6875 C-293.8125 298.2075 -293.8125 312.7275 -293.8125 327.6875 C-299.1646875 331.090625 -299.1646875 331.090625 -304.625 334.5625 C-305.72561768 335.29581543 -306.82623535 336.02913086 -307.96020508 336.78466797 C-310.93524774 338.56636181 -313.43081068 339.8760679 -316.8125 340.6875 C-321.08362896 339.4574908 -324.24784402 337.28097922 -327.8125 334.6875 C-329.13741916 334.004264 -330.46953954 333.33455442 -331.8125 332.6875 C-331.86325471 324.82213093 -331.8982567 316.95680418 -331.92236328 309.09130859 C-331.93128335 306.41610034 -331.94605637 303.74110611 -331.96337891 301.06591797 C-331.98766701 297.21839692 -331.99899245 293.37102128 -332.0078125 289.5234375 C-332.01813507 288.32947357 -332.02845764 287.13550964 -332.03909302 285.90536499 C-332.03924408 284.78465607 -332.03939514 283.66394714 -332.03955078 282.50927734 C-332.043992 281.52776703 -332.04843323 280.54625671 -332.05300903 279.53500366 C-331.64169192 274.66521994 -330.09217015 270.66829419 -327.23828125 266.734375 C-326.73490234 266.03183594 -326.23152344 265.32929688 -325.71289062 264.60546875 C-325.18888672 263.89003906 -324.66488281 263.17460937 -324.125 262.4375 C-322.59408068 260.31415596 -321.06464449 258.19166936 -319.56295776 256.04751587 C-317.8125 253.6875 -317.8125 253.6875 -315.99673462 251.76547241 C-308.78208314 243.45682796 -309.82610044 234.07005863 -309.91015625 223.6796875 C-309.90076049 221.74340137 -309.88829613 219.80712792 -309.87290955 217.87088013 C-309.84080779 212.80394878 -309.85008086 207.73792646 -309.86828613 202.67095947 C-309.87947876 197.48887345 -309.85110707 192.30701583 -309.82617188 187.125 C-309.78312773 176.97900467 -309.7838389 166.83352864 -309.8125 156.6875 C-309.11769028 156.29972885 -308.42288055 155.9119577 -307.70701599 155.51243591 C-304.49027999 153.71638565 -301.27443435 151.91874671 -298.05859375 150.12109375 C-296.96623413 149.51148804 -295.87387451 148.90188232 -294.74841309 148.27380371 C-287.41387752 144.17194198 -280.12695165 139.99607937 -272.875 135.75 C-271.770354 135.10361572 -270.66570801 134.45723145 -269.52758789 133.79125977 C-268.66383545 133.28393311 -267.80008301 132.77660645 -266.91015625 132.25390625 C-259.48840123 127.90504349 -252.03296224 123.615022 -244.57641602 119.32617188 C-239.00507021 116.11826156 -233.44562867 112.89171098 -227.90625 109.62890625 C-226.79894531 108.97792969 -225.69164062 108.32695312 -224.55078125 107.65625 C-222.43140626 106.40865652 -220.31412887 105.15749116 -218.19921875 103.90234375 C-217.25691406 103.34804687 -216.31460938 102.79375 -215.34375 102.22265625 C-214.51423828 101.731604 -213.68472656 101.24055176 -212.83007812 100.73461914 C-210.8125 99.6875 -210.8125 99.6875 -208.8125 99.6875 C-208.55339844 98.96304688 -208.29429687 98.23859375 -208.02734375 97.4921875 C-206.7591482 94.56432767 -205.31712566 92.34008973 -203.375 89.8125 C-202.77816406 89.01070313 -202.18132812 88.20890625 -201.56640625 87.3828125 C-194.28582267 80.25713495 -184.41823768 75.6473096 -175.625 70.625 C-173.31610013 69.3000082 -171.00747842 67.97454312 -168.69921875 66.6484375 C-168.11962402 66.3157637 -167.5400293 65.9830899 -166.94287109 65.64033508 C-161.25645166 62.37414015 -155.59635751 59.06362559 -149.9375 55.75 C-140.66776391 50.32784668 -131.3541778 44.98544818 -122.02404785 39.66827393 C-112.90109429 34.46785969 -103.81365472 29.20945223 -94.75 23.90625 C-86.37626001 19.00861163 -77.97662074 14.15685 -69.56689453 9.32128906 C-64.04333479 6.14189043 -58.53395894 2.94122632 -53.046875 -0.30078125 C-51.95761719 -0.94273438 -50.86835938 -1.5846875 -49.74609375 -2.24609375 C-47.67815247 -3.46655971 -45.61288283 -4.69156796 -43.55078125 -5.921875 C-25.83687992 -16.36349506 -16.22376405 -9.57818381 0 0 Z M-11.8125 82.6875 C-12.71473485 86.28272628 -12.5699998 89.82585806 -12.49365234 93.51464844 C-12.4945285 94.61738602 -12.49540466 95.7201236 -12.49630737 96.85627747 C-12.49212478 100.50386206 -12.44543643 104.14961139 -12.3984375 107.796875 C-12.38724787 110.32463578 -12.37870659 112.85240956 -12.37271118 115.38018799 C-12.35213755 121.3550967 -12.30484455 127.32921674 -12.24461424 133.3038094 C-12.17752525 140.10658143 -12.14455435 146.90938514 -12.11444163 153.71240568 C-12.05174349 167.70446882 -11.94622377 181.69594831 -11.8125 195.6875 C-8.00822508 197.8888866 -8.00822508 197.8888866 -3.8125 198.6875 C-3.8125 159.0875 -3.8125 119.4875 -3.8125 78.6875 C-7.51447674 78.6875 -9.13873846 80.23448467 -11.8125 82.6875 Z " fill="#F0A93F" transform="translate(387.8125,37.3125)"/>
<path d="M0 0 C2.996357 1.21448112 5.66641154 2.57144302 8.44799805 4.21386719 C9.43598389 4.79370361 10.42396973 5.37354004 11.44189453 5.97094727 C12.47644775 6.58607178 13.51100098 7.20119629 14.5769043 7.83496094 C15.63917236 8.46104248 16.70144043 9.08712402 17.79589844 9.73217773 C20.91416516 11.57267181 24.02746749 13.42128904 27.1394043 15.27246094 C27.98631836 15.77455078 28.83323242 16.27664062 29.70581055 16.79394531 C31.83136757 18.0545337 33.95501386 19.3182123 36.0769043 20.58496094 C36.69041748 20.95113525 37.30393066 21.31730957 37.93603516 21.69458008 C42.01647653 24.14953317 42.01647653 24.14953317 43.1394043 25.27246094 C43.27987682 26.92715619 43.35168588 28.58774036 43.39575195 30.24780273 C43.42472565 31.30948166 43.45369934 32.37116058 43.48355103 33.4650116 C43.58074236 38.33970235 43.65510969 43.21423985 43.70922852 48.08959961 C43.74588932 50.66120886 43.80045901 53.2326277 43.87329102 55.8034668 C43.97666364 59.50606454 44.02115113 63.20536167 44.0534668 66.90917969 C44.09678131 68.056259 44.14009583 69.20333832 44.1847229 70.38517761 C44.16625803 78.19344453 44.16625803 78.19344453 41.22569275 81.28338623 C38.9219956 82.84239998 36.64925518 84.07948097 34.1394043 85.27246094 C32.69338332 86.09513114 31.2512223 86.92467144 29.81518555 87.76464844 C28.36283504 88.56271003 26.90835948 89.35691519 25.4519043 90.14746094 C23.88375284 91.00733038 22.3160501 91.86801863 20.7487793 92.72949219 C19.97727539 93.15311035 19.20577148 93.57672852 18.41088867 94.01318359 C13.85818779 96.53713363 9.36232366 99.16042477 4.86206055 101.77636719 C0.43566238 104.20866345 -2.32642315 104.22893522 -7.2824707 103.92480469 C-15.43471545 103.88193116 -20.37692836 106.50405127 -27.1105957 110.83496094 C-28.80192691 111.86674683 -30.49329058 112.89848347 -32.1864624 113.92724609 C-33.92992441 114.991473 -35.6650823 116.06833598 -37.3996582 117.14697266 C-42.88633479 120.54009969 -48.50744879 123.70200788 -54.1105957 126.89746094 C-60.53693819 130.5911973 -66.94567905 134.31099203 -73.3137207 138.10449219 C-74.84270996 139.01497314 -74.84270996 139.01497314 -76.40258789 139.94384766 C-78.33279114 141.09629816 -80.26064422 142.25269672 -82.18579102 143.41357422 C-83.03753906 143.92259277 -83.88928711 144.43161133 -84.7668457 144.95605469 C-85.51256836 145.4052124 -86.25829102 145.85437012 -87.02661133 146.31713867 C-88.8605957 147.27246094 -88.8605957 147.27246094 -90.8605957 147.27246094 C-92.18874149 178.79392099 -89.54943753 204.17446129 -75.88110352 232.81054688 C-75.19959347 234.29419948 -74.52693416 235.78193283 -73.8605957 237.27246094 C-73.42676071 238.24002319 -72.99292572 239.20758545 -72.54594421 240.20446777 C-67.6176249 251.96172083 -67.49174946 263.60686832 -67.27490234 276.17382812 C-67.22141406 278.91291815 -67.10289275 281.63722383 -66.92626953 284.37109375 C-65.54268591 306.26417949 -65.54268591 306.26417949 -71.01043701 312.86962891 C-76.77064735 317.73287122 -83.49369894 321.51675772 -90.8605957 323.27246094 C-93.93994141 322.92871094 -93.93994141 322.92871094 -96.8605957 321.27246094 C-97.70049042 320.93827652 -98.54038513 320.6040921 -99.4057312 320.25978088 C-102.41187775 318.87928699 -104.52328482 317.62250343 -106.8605957 315.27246094 C-108.26096671 310.77934549 -108.04815655 306.47011847 -107.88012695 301.79980469 C-107.87430031 299.79027477 -107.86850021 297.7807444 -107.86418438 295.77121067 C-107.84609328 292.9603095 -107.78294648 290.15112736 -107.71936035 287.34094238 C-107.59861771 281.77945349 -107.54474783 276.21800587 -107.5234127 270.65533638 C-107.5056716 268.73379593 -107.45246775 266.81268488 -107.39814758 264.89183044 C-107.30676503 256.20538902 -108.83084609 249.02777061 -112.8605957 241.27246094 C-115.46229267 238.46424053 -115.46229267 238.46424053 -118.6730957 237.02246094 C-126.49328253 232.94236346 -134.17279959 228.59684625 -141.8605957 224.27246094 C-141.8605957 238.79246094 -141.8605957 253.31246094 -141.8605957 268.27246094 C-147.2127832 271.67558594 -147.2127832 271.67558594 -152.6730957 275.14746094 C-153.77371338 275.88077637 -154.87433105 276.6140918 -156.00830078 277.36962891 C-158.98334344 279.15132275 -161.47890639 280.46102884 -164.8605957 281.27246094 C-169.13172467 280.04245174 -172.29593973 277.86594015 -175.8605957 275.27246094 C-177.18551487 274.58922494 -178.51763524 273.91951536 -179.8605957 273.27246094 C-179.91135041 265.40709186 -179.9463524 257.54176512 -179.97045898 249.67626953 C-179.97937905 247.00106127 -179.99415207 244.32606705 -180.01147461 241.65087891 C-180.03576271 237.80335786 -180.04708815 233.95598222 -180.0559082 230.10839844 C-180.06623077 228.91443451 -180.07655334 227.72047058 -180.08718872 226.49032593 C-180.08733978 225.369617 -180.08749084 224.24890808 -180.08764648 223.09423828 C-180.09208771 222.11272797 -180.09652893 221.13121765 -180.10110474 220.1199646 C-179.68978763 215.25018087 -178.14026585 211.25325513 -175.28637695 207.31933594 C-174.53130859 206.26552734 -174.53130859 206.26552734 -173.76098633 205.19042969 C-173.23698242 204.475 -172.71297852 203.75957031 -172.1730957 203.02246094 C-170.64217638 200.8991169 -169.1127402 198.77663029 -167.61105347 196.63247681 C-165.8605957 194.27246094 -165.8605957 194.27246094 -164.04483032 192.35043335 C-156.83017884 184.04178889 -157.87419614 174.65501957 -157.95825195 164.26464844 C-157.94885619 162.3283623 -157.93639184 160.39208886 -157.92100525 158.45584106 C-157.88890349 153.38890972 -157.89817657 148.3228874 -157.91638184 143.25592041 C-157.92757447 138.07383439 -157.89920277 132.89197677 -157.87426758 127.70996094 C-157.83122343 117.56396561 -157.83193461 107.41848957 -157.8605957 97.27246094 C-157.16578598 96.88468979 -156.47097626 96.49691864 -155.75511169 96.09739685 C-152.53837569 94.30134659 -149.32253005 92.50370765 -146.10668945 90.70605469 C-145.01432983 90.09644897 -143.92197021 89.48684326 -142.79650879 88.85876465 C-135.46197323 84.75690292 -128.17504735 80.58104031 -120.9230957 76.33496094 C-119.81844971 75.68857666 -118.71380371 75.04219238 -117.57568359 74.3762207 C-116.71193115 73.86889404 -115.84817871 73.36156738 -114.95825195 72.83886719 C-107.53649694 68.49000443 -100.08105794 64.19998294 -92.62451172 59.91113281 C-87.05316591 56.7032225 -81.49372438 53.47667192 -75.9543457 50.21386719 C-74.84704102 49.56289062 -73.73973633 48.91191406 -72.59887695 48.24121094 C-70.47950197 46.99361746 -68.36222457 45.7424521 -66.24731445 44.48730469 C-64.83385742 43.65585938 -64.83385742 43.65585938 -63.3918457 42.80761719 C-62.56233398 42.31656494 -61.73282227 41.8255127 -60.87817383 41.31958008 C-58.8605957 40.27246094 -58.8605957 40.27246094 -56.8605957 40.27246094 C-56.60149414 39.54800781 -56.34239258 38.82355469 -56.07543945 38.07714844 C-54.8072439 35.1492886 -53.36522136 32.92505067 -51.4230957 30.39746094 C-50.5278418 29.19476563 -50.5278418 29.19476563 -49.61450195 27.96777344 C-42.05624493 20.57033039 -31.7302345 15.80295288 -22.6105957 10.58496094 C-21.47879883 9.93462891 -20.34700195 9.28429687 -19.1809082 8.61425781 C-17.01605453 7.37086118 -14.8476244 6.13366306 -12.67504883 4.90380859 C-10.99688911 3.93109318 -9.33606612 2.92568329 -7.71801758 1.85595703 C-4.77067623 -0.07469714 -3.50324074 -0.89098382 0 0 Z " fill="#494D54" transform="translate(235.860595703125,96.7275390625)"/>
<path d="M0 0 C0 3.4610997 -0.87790768 5.15197081 -2.375 8.25 C-7.39976947 18.65215434 -8.48475453 29.24914589 -6.55859375 40.6015625 C-4.18473951 46.84069772 2.06546987 49.59080197 7.60107422 52.65966797 C11.66676121 54.93125575 15.68669316 57.28215195 19.71630859 59.61694336 C24.1249529 62.17027224 28.54663049 64.70086994 32.96850586 67.23120117 C36.60681783 69.35406259 40.17352918 71.5821289 43.71972656 73.85522461 C48.49415157 76.25214954 52.87338487 76.15184717 58 75 C64.01653206 72.72123238 69.48406702 69.26645993 75 66 C76.94160085 64.87698931 78.884369 63.75599507 80.828125 62.63671875 C84.95070263 60.25544173 89.06013556 57.85349264 93.16015625 55.43359375 C96.75560189 53.31175873 100.36242954 51.21582247 103.99609375 49.16015625 C123.18691782 38.25768017 133.39656726 25.20049459 140 4 C147.15468544 5.03858337 153.10255289 12.58314741 157.375 18 C164.32177723 27.87898632 165.19407403 37.32461945 165.25 49.125 C165.2809375 50.72214844 165.2809375 50.72214844 165.3125 52.3515625 C165.35627017 61.36821713 164.7209156 70.49047235 159.3515625 78.03515625 C156.01585103 82.88835329 156.26307987 87.71092003 156.375 93.4375 C156.35566406 94.42298828 156.33632813 95.40847656 156.31640625 96.42382812 C156.36372352 103.56400465 158.12747269 108.08113106 162 114 C165.47387216 121.46882514 165.18277614 129.239431 165.1875 137.3125 C165.19974609 138.40240234 165.21199219 139.49230469 165.22460938 140.61523438 C165.25308165 156.39836707 161.02727664 165.75069766 150 177 C149.41734375 177.61875 148.8346875 178.2375 148.234375 178.875 C133.25257711 193.45188443 110.04255668 199.03564835 90 202 C89.12085938 202.13148438 88.24171875 202.26296875 87.3359375 202.3984375 C54.7509726 206.22587782 18.5628419 200.95584738 -8.5 181.5625 C-18.0664005 173.96908848 -25.51969973 165.2909734 -28 153 C-28.2672509 148.56431164 -28.31317608 144.12811061 -28.35009766 139.68554688 C-28.36653791 138.2426731 -28.39366783 136.79987664 -28.43212891 135.35742188 C-28.7026662 125.1287598 -28.11259269 115.30344711 -21.36279297 106.98144531 C-18.77770083 103.22282693 -19.48837415 98.66782318 -19.5 94.25 C-19.47164063 93.28578125 -19.44328125 92.3215625 -19.4140625 91.328125 C-19.39774998 85.3251192 -20.26597841 81.81358436 -23.70678711 76.92138672 C-28.72010571 69.47286541 -28.49903822 60.9263204 -28.44604492 52.25341797 C-28.43754175 50.13540054 -28.46636165 48.02009581 -28.49804688 45.90234375 C-28.56952699 32.39230634 -25.0619583 22.20599291 -16 12 C-11.03205798 7.39386889 -5.87103286 3.38510003 0 0 Z " fill="#F0A93F" transform="translate(291,284)"/>
<path d="M0 0 C0 3.4610997 -0.87790768 5.15197081 -2.375 8.25 C-7.39976947 18.65215434 -8.48475453 29.24914589 -6.55859375 40.6015625 C-4.18473951 46.84069772 2.06546987 49.59080197 7.60107422 52.65966797 C11.66676121 54.93125575 15.68669316 57.28215195 19.71630859 59.61694336 C24.1249529 62.17027224 28.54663049 64.70086994 32.96850586 67.23120117 C36.60681783 69.35406259 40.17352918 71.5821289 43.71972656 73.85522461 C48.49415157 76.25214954 52.87338487 76.15184717 58 75 C64.01653206 72.72123238 69.48406702 69.26645993 75 66 C76.94160085 64.87698931 78.884369 63.75599507 80.828125 62.63671875 C84.95070263 60.25544173 89.06013556 57.85349264 93.16015625 55.43359375 C96.75560189 53.31175873 100.36242954 51.21582247 103.99609375 49.16015625 C123.18691782 38.25768017 133.39656726 25.20049459 140 4 C147.15468544 5.03858337 153.10255289 12.58314741 157.375 18 C164.32177723 27.87898632 165.19407403 37.32461945 165.25 49.125 C165.2809375 50.72214844 165.2809375 50.72214844 165.3125 52.3515625 C165.3714583 64.49697143 163.23844333 75.43321755 154.69921875 84.421875 C142.85743613 95.73240543 129.44728294 102.99081494 114.0625 108.3125 C113.40870361 108.54291992 112.75490723 108.77333984 112.08129883 109.01074219 C98.22260548 113.5151069 84.14612829 114.52424505 69.6875 114.375 C68.47651138 114.36802094 68.47651138 114.36802094 67.24105835 114.36090088 C38.26259319 114.16547529 9.36546968 108.79758242 -13 89 C-13.65484375 88.48695313 -14.3096875 87.97390625 -14.984375 87.4453125 C-21.98607828 81.90977786 -26.10693924 74.7007698 -28 66 C-28.39196169 61.41228097 -28.47415247 56.85350936 -28.44604492 52.25341797 C-28.43754175 50.13540054 -28.46636165 48.02009581 -28.49804688 45.90234375 C-28.56952699 32.39230634 -25.0619583 22.20599291 -16 12 C-11.03205798 7.39386889 -5.87103286 3.38510003 0 0 Z " fill="#5D626A" transform="translate(291,284)"/>
<path d="M0 0 C9.60979293 4.82111097 9.60979293 4.82111097 12.41015625 8.8671875 C15.89412496 20.05256074 12.68431759 29.50636481 7.59765625 39.6796875 C7.49213747 41.99933276 7.45367641 44.32209645 7.4437561 46.64411926 C7.43937385 47.3691726 7.4349916 48.09422594 7.43047655 48.8412506 C7.41706728 51.28324841 7.41090495 53.72521012 7.40478516 56.16723633 C7.39688592 57.91309269 7.38861708 59.65894742 7.38000488 61.40480042 C7.35376607 67.14875729 7.33847628 72.89272152 7.32421875 78.63671875 C7.31886 80.61219475 7.3134825 82.58767069 7.3080864 84.56314659 C7.28645574 92.77870584 7.26771784 100.99426311 7.256464 109.20984364 C7.24021706 120.99398211 7.20702332 132.77779125 7.15006316 144.56180555 C7.11139965 152.84211036 7.09183562 161.12232695 7.08654344 169.40271968 C7.0828853 174.35106048 7.07081498 179.29905017 7.0384407 184.24729347 C7.00842286 188.90211817 7.00202567 193.55637815 7.01382446 198.21127892 C7.01404572 199.92012509 7.00569758 201.62899699 6.98817062 203.3377533 C6.96554372 205.67062029 6.97374142 208.00142828 6.98965454 210.33430481 C6.98634439 211.63973142 6.98303425 212.94515802 6.97962379 214.29014301 C7.75284521 218.53080769 9.38219936 219.92096219 12.59765625 222.6796875 C15.0446918 227.5737586 14.13789003 234.39835741 12.9140625 239.56640625 C9.20648427 250.35068983 3.74134592 259.78648341 -6.22265625 265.7734375 C-10.36847975 267.78128027 -13.86739425 268.05242308 -18.40234375 267.6796875 C-21.82421875 266.03515625 -21.82421875 266.03515625 -25.15234375 263.8671875 C-26.2609375 263.15949219 -27.36953125 262.45179688 -28.51171875 261.72265625 C-34.0187256 257.83054195 -34.0187256 257.83054195 -35.40234375 253.6796875 C-36.01346261 245.19453724 -36.01840827 236.68376351 -30.86174011 229.54772949 C-29.00789857 225.90451403 -29.02232881 222.77800436 -29.1027832 218.79101562 C-29.10647856 217.99018051 -29.11017391 217.1893454 -29.11398125 216.36424255 C-29.12971629 213.64617897 -29.16674288 210.92879753 -29.203125 208.2109375 C-29.21846214 206.23247403 -29.23218784 204.25399754 -29.24446106 202.2755127 C-29.27309789 197.85824497 -29.30921101 193.44110906 -29.34869385 189.02392578 C-29.41277177 181.18390507 -29.42295612 173.3441244 -29.42724609 165.50390625 C-29.43564699 152.28011446 -29.4731069 139.05670625 -29.53448296 125.83305359 C-29.56944034 118.1673126 -29.59451263 110.5017631 -29.59790039 102.8359375 C-29.60093749 96.01393991 -29.62131245 89.19225671 -29.66286832 82.37038088 C-29.68406568 78.79651108 -29.69686135 75.22308779 -29.68849754 71.64915466 C-29.67958583 67.71044958 -29.70949746 63.77256945 -29.74291992 59.83398438 C-29.73429428 58.66965881 -29.72566864 57.50533325 -29.71678162 56.3057251 C-29.71415166 49.9418387 -29.71415166 49.9418387 -32.88105774 44.60754395 C-33.71308212 43.97135132 -34.54510651 43.33515869 -35.40234375 42.6796875 C-38.20250221 34.27921211 -36.53033408 26.27014571 -32.8828125 18.43359375 C-26.17078722 5.94816414 -15.03342766 -5.83386745 0 0 Z " fill="#494D54" transform="translate(413.40234375,56.3203125)"/>
<path d="M0 0 C2.4375 1.625 2.4375 1.625 3.4375 3.625 C3.55175236 5.02685127 3.60681698 6.43378573 3.63037109 7.84008789 C3.64643402 8.71182144 3.66249695 9.58355499 3.67904663 10.48170471 C3.72365246 14.49031765 3.76460676 18.49876467 3.78759766 22.50756836 C3.80410196 24.615103 3.83131823 26.72258295 3.86962891 28.82983398 C3.92473599 31.87773514 3.94632845 34.92432218 3.9609375 37.97265625 C3.98360687 38.90425064 4.00627625 39.83584503 4.02963257 40.79566956 C4.01066035 46.74553931 2.88888006 50.55477526 -0.38949585 55.54246521 C-2.77563886 59.77878937 -2.7456391 64.35558923 -2.8125 69.125 C-2.83828125 70.2284375 -2.8640625 71.331875 -2.890625 72.46875 C-2.51193815 76.11135687 -1.83321881 77.76294817 0.4375 80.625 C3.32995311 82.94603301 3.32995311 82.94603301 6.6875 84.9375 C7.78578125 85.63488281 8.8840625 86.33226562 10.015625 87.05078125 C14.44808217 89.08991394 17.98312063 89.39711583 22.66015625 87.92578125 C33.93514659 81.86936393 39.6245209 73.60140537 43.75 61.5 C45.31440883 54.95792672 45.70400162 47.67947116 42.4375 41.625 C41.1175 40.965 39.7975 40.305 38.4375 39.625 C38.4375 34.345 38.4375 29.065 38.4375 23.625 C44.07454301 26.44352151 47.82217373 28.65782564 50.19140625 34.4765625 C52.56308357 42.80231086 51.67412514 50.45715212 48.8125 58.5 C48.53889648 59.2844751 48.26529297 60.0689502 47.98339844 60.87719727 C41.70339825 78.36710594 31.41649044 89.40171612 15.4375 98.625 C14.42204102 99.21474609 13.40658203 99.80449219 12.36035156 100.41210938 C-33.65462804 127.07105953 -33.65462804 127.07105953 -44.5625 125.625 C-49.00606447 123.88452134 -52.90950988 121.47957918 -56.9375 118.9375 C-58.63366929 117.90958557 -60.32985007 116.88168892 -62.02700806 115.85540771 C-63.74972843 114.80875874 -65.46500196 113.75066745 -67.1796875 112.69091797 C-70.42459457 110.70922025 -73.69938908 108.79731111 -77 106.91015625 C-78.00240723 106.33418701 -79.00481445 105.75821777 -80.03759766 105.16479492 C-81.92534143 104.08106662 -83.81552597 103.00157522 -85.70849609 101.92700195 C-91.92455891 98.29830281 -96.49403473 94.82284128 -98.5625 87.625 C-99.47545517 77.3383307 -98.89067261 68.12736197 -94.5625 58.625 C-94.29937012 58.03477051 -94.03624023 57.44454102 -93.76513672 56.83642578 C-86.48943659 40.85623779 -75.77272197 32.11754088 -60.69384766 23.8203125 C-58.03068868 22.32674705 -55.43591472 20.73588727 -52.83789062 19.13256836 C-45.85415119 14.82895954 -38.6841179 11.08347116 -31.31640625 7.484375 C-27.03041589 5.38449075 -22.85945796 3.09204988 -18.69921875 0.75390625 C-12.76695023 -2.38032703 -6.18376936 -2.386718 0 0 Z " fill="#FEB74F" transform="translate(381.5625,234.375)"/>
<path d="M0 0 C7.57690773 3.64211874 14.82840561 7.72260748 22.0625 12 C25.10094863 13.78979731 28.14051324 15.57717229 31.18798828 17.3515625 C32.99456184 18.41059919 34.79092101 19.487367 36.57373047 20.5859375 C37.74186279 21.28589844 37.74186279 21.28589844 38.93359375 22 C39.60318115 22.4125 40.27276855 22.825 40.96264648 23.25 C43.7000578 24.25770852 45.23461097 23.84858508 48 23 C50.10679621 21.99646373 50.10679621 21.99646373 52.1015625 20.71484375 C52.83890625 20.26689453 53.57625 19.81894531 54.3359375 19.35742188 C55.09132813 18.88884766 55.84671875 18.42027344 56.625 17.9375 C58.13431478 17.00310158 59.64719887 16.07443716 61.1640625 15.15234375 C61.82873535 14.73976318 62.4934082 14.32718262 63.17822266 13.90209961 C65 13 65 13 68 13 C70.18751691 18.60082743 72.37459075 24.20182762 74.5612793 29.80297852 C75.30302373 31.702764 76.0448828 33.60250473 76.78686523 35.50219727 C77.86212887 38.2552492 78.93696034 41.00846955 80.01171875 43.76171875 C80.33589279 44.59144699 80.66006683 45.42117523 80.99406433 46.27604675 C81.64691728 47.94895353 82.29443392 49.6239515 82.93690491 51.3008728 C83.6959918 53.22814356 84.49379137 55.1403495 85.31687927 57.04116821 C90.23677967 68.77316586 90.36923198 80.35676194 90.58569336 92.90136719 C90.63918164 95.64045722 90.75770295 98.36476289 90.93432617 101.09863281 C92.31790979 122.99171855 92.31790979 122.99171855 86.85015869 129.59716797 C81.08994835 134.46041028 74.36689676 138.24429678 67 140 C63.9206543 139.65625 63.9206543 139.65625 61 138 C60.16010529 137.66581558 59.32021057 137.33163116 58.4548645 136.98731995 C55.44871795 135.60682605 53.33731088 134.35004249 51 132 C49.599629 127.50688455 49.81243915 123.19765753 49.98046875 118.52734375 C49.98629539 116.51781383 49.99209549 114.50828346 49.99641132 112.49874973 C50.01450243 109.68784856 50.07764922 106.87866642 50.14123535 104.06848145 C50.26197799 98.50699255 50.31584787 92.94554493 50.337183 87.38287544 C50.3549241 85.46133499 50.40812795 83.54022394 50.46244812 81.61936951 C50.55383067 72.93292808 49.02974961 65.75530967 45 58 C42.39830304 55.19177959 42.39830304 55.19177959 39.1875 53.75 C31.36731318 49.66990253 23.68779611 45.32438531 16 41 C16 55.52 16 70.04 16 85 C10.6478125 88.403125 10.6478125 88.403125 5.1875 91.875 C4.08688232 92.60831543 2.98626465 93.34163086 1.85229492 94.09716797 C-1.12274774 95.87886181 -3.61831068 97.1885679 -7 98 C-11.27112896 96.7699908 -14.43534402 94.59347922 -18 92 C-19.32491916 91.316764 -20.65703954 90.64705442 -22 90 C-22.05075471 82.13463093 -22.0857567 74.26930418 -22.10986328 66.40380859 C-22.11878335 63.72860034 -22.13355637 61.05360611 -22.15087891 58.37841797 C-22.17516701 54.53089692 -22.18649245 50.68352128 -22.1953125 46.8359375 C-22.20563507 45.64197357 -22.21595764 44.44800964 -22.22659302 43.21786499 C-22.22674408 42.09715607 -22.22689514 40.97644714 -22.22705078 39.82177734 C-22.231492 38.84026703 -22.23593323 37.85875671 -22.24050903 36.84750366 C-21.83123592 32.00191975 -20.29418103 28.00295479 -17.4609375 24.08203125 C-16.96625977 23.38972412 -16.47158203 22.69741699 -15.96191406 21.98413086 C-15.43823242 21.26749268 -14.91455078 20.55085449 -14.375 19.8125 C-13.84100586 19.06943604 -13.30701172 18.32637207 -12.75683594 17.56079102 C-11.17865209 15.36836815 -9.59049954 13.18349809 -8 11 C-7.14282673 9.81539526 -6.2860171 8.63052725 -5.4296875 7.4453125 C-3.62718148 4.95798341 -1.81616707 2.47734957 0 0 Z " fill="#5E636C" transform="translate(78,280)"/>
<path d="M0 0 C0.33 0 0.66 0 1 0 C1.03867187 1.74023438 1.03867187 1.74023438 1.078125 3.515625 C1.53623394 17.89129944 3.38569718 29.42149584 14 40 C24.52260987 49.15949137 37.58836405 55.38320466 51 59 C51.63421875 59.18191895 52.2684375 59.36383789 52.921875 59.55126953 C82.54375846 67.78498385 116.1971402 64.58430163 144 52 C145.03640625 51.53851563 146.0728125 51.07703125 147.140625 50.6015625 C159.17732581 44.65199324 169.43880373 34.74728295 174 22 C174.3589674 19.39787925 174.3589674 19.39787925 174.4140625 16.69921875 C174.47207031 15.23452148 174.47207031 15.23452148 174.53125 13.74023438 C174.5621875 12.73283203 174.593125 11.72542969 174.625 10.6875 C174.68300781 9.14739258 174.68300781 9.14739258 174.7421875 7.57617188 C174.83614897 5.05095735 174.9218154 2.52574408 175 0 C175.66 0 176.32 0 177 0 C183.34671136 11.11885692 185.18000558 19.50454248 185.1875 32.3125 C185.19974609 33.40240234 185.21199219 34.49230469 185.22460938 35.61523438 C185.25308165 51.39836707 181.02727664 60.75069766 170 72 C169.41734375 72.61875 168.8346875 73.2375 168.234375 73.875 C153.25257711 88.45188443 130.04255668 94.03564835 110 97 C109.12085938 97.13148438 108.24171875 97.26296875 107.3359375 97.3984375 C74.7509726 101.22587782 38.5628419 95.95584738 11.5 76.5625 C1.9335995 68.96908848 -5.51969973 60.2909734 -8 48 C-8.2672509 43.56431164 -8.31317608 39.12811061 -8.35009766 34.68554688 C-8.36653791 33.2426731 -8.39366783 31.79987664 -8.43212891 30.35742188 C-8.72994884 19.09723852 -7.50235486 8.9954783 0 0 Z " fill="#4E5259" transform="translate(271,389)"/>
<path d="M0 0 C4.8225221 2.87492936 9.67790568 5.69328364 14.53417969 8.51074219 C12.52794732 9.05625706 10.62687407 9.50214922 8.55371094 9.69433594 C1.43363203 10.51346006 -3.90873565 13.80832702 -9.87280273 17.52807617 C-13.91734667 20.0476833 -17.99183009 22.3137955 -22.27050781 24.41699219 C-28.41393789 27.4397498 -34.3185989 30.78606895 -40.21582031 34.26074219 C-41.78867798 35.18197876 -41.78867798 35.18197876 -43.39331055 36.12182617 C-49.16413146 39.51640063 -54.87923997 42.98027191 -60.52832031 46.57324219 C-67.66391851 51.10899096 -74.99200646 55.26916393 -82.37792969 59.38256836 C-87.6620863 62.33201716 -92.88969854 65.34757706 -98.06347656 68.48730469 C-99.14435547 69.13795898 -100.22523438 69.78861328 -101.33886719 70.45898438 C-103.42530781 71.71940916 -105.50385112 72.99302419 -107.57324219 74.28125 C-108.51876953 74.8494043 -109.46429688 75.41755859 -110.43847656 76.00292969 C-111.26613525 76.51194824 -112.09379395 77.0209668 -112.9465332 77.54541016 C-116.27332884 78.82016061 -118.05071141 78.46980189 -121.46582031 77.51074219 C-124.51098633 76.05541992 -124.51098633 76.05541992 -127.71972656 74.19433594 C-128.30189438 73.85958755 -128.88406219 73.52483917 -129.48387146 73.1799469 C-131.33710247 72.11122565 -133.18257557 71.02982972 -135.02832031 69.94824219 C-136.23944649 69.24887317 -137.45103209 68.55029913 -138.66308594 67.85253906 C-146.68725164 63.21618333 -154.59714133 58.40595025 -162.46582031 53.51074219 C-159.53606809 51.22323259 -156.52581666 49.31095427 -153.30175781 47.46386719 C-152.27566406 46.87412109 -151.24957031 46.284375 -150.19238281 45.67675781 C-148.53335938 44.72833008 -148.53335938 44.72833008 -146.84082031 43.76074219 C-145.67399409 43.09109825 -144.50733023 42.42117135 -143.34082031 41.75097656 C-140.91794519 40.35925449 -138.49437685 38.96875115 -136.0703125 37.57910156 C-130.52892004 34.40103188 -124.99791285 31.20496246 -119.46582031 28.01074219 C-117.2992025 26.76065751 -115.13253567 25.51065778 -112.96582031 24.26074219 C-111.89332031 23.64199219 -110.82082031 23.02324219 -109.71582031 22.38574219 C-99.96582031 16.76074219 -99.96582031 16.76074219 -96.71191406 14.88354492 C-94.55820312 13.64098199 -92.40455665 12.3983073 -90.25097656 11.15551758 C-85.22897769 8.25759596 -80.20639224 5.3607087 -75.18139648 2.46798706 C-73.41536509 1.4512702 -71.649546 0.43418561 -69.88378906 -0.58300781 C-67.67847877 -1.85326654 -65.47277815 -3.12284799 -63.26660156 -4.39160156 C-57.65189391 -7.62670841 -52.07245072 -10.90776381 -46.54272461 -14.28637695 C-30.53015574 -23.56037799 -13.56485725 -8.10989861 0 0 Z " fill="#FEB74F" transform="translate(396.4658203125,42.4892578125)"/>
<path d="M0 0 C2.00603339 1.03380004 3.97110116 2.14883846 5.90234375 3.31640625 C7.03438232 3.99509766 8.1664209 4.67378906 9.33276367 5.37304688 C10.53437748 6.1028069 11.73595569 6.83262555 12.9375 7.5625 C14.76624597 8.66248474 16.59651098 9.75991141 18.42683411 10.85726929 C19.62704409 11.57713793 20.8267457 12.29785488 22.02592468 13.0194397 C28.290636 16.78712504 34.62714536 20.41895044 41 24 C40.57045619 25.3983022 40.13092966 26.79353907 39.6875 28.1875 C39.44386719 28.96480469 39.20023438 29.74210937 38.94921875 30.54296875 C36.83901074 36.00519442 34.57128288 38.65325465 29.42578125 41.49609375 C28.29575684 42.12974854 27.16573242 42.76340332 26.00146484 43.41625977 C24.77182933 44.09004197 23.54217387 44.76378779 22.3125 45.4375 C21.04036624 46.1469017 19.76905399 46.85777841 18.49853516 47.57006836 C16.55418645 48.65986301 14.60937368 49.74871269 12.66192627 50.83296204 C6.68479011 54.1612363 0.77397017 57.59769401 -5.125 61.0625 C-14.71126671 66.67305137 -24.31377553 72.25487719 -33.94873047 77.78149414 C-38.50693109 80.39656437 -43.05708315 83.01370168 -47.5390625 85.7578125 C-48.18278809 86.14598145 -48.82651367 86.53415039 -49.48974609 86.93408203 C-51.08897157 87.90248958 -52.67791649 88.88782372 -54.265625 89.875 C-57.73065478 91.30061225 -59.37809736 90.86532937 -63 90 C-65.82983398 88.65234375 -65.82983398 88.65234375 -68.74609375 86.9375 C-69.82455566 86.30996826 -70.90301758 85.68243652 -72.01416016 85.03588867 C-73.70871338 84.02812378 -73.70871338 84.02812378 -75.4375 83 C-77.18735028 81.96341288 -78.93773365 80.92773035 -80.68817139 79.89213562 C-82.40456831 78.87584162 -84.11953006 77.85712507 -85.83447266 76.83837891 C-88.54006125 75.26710927 -91.26129161 73.78563547 -94.04296875 72.35546875 C-95.10076538 71.79182617 -95.10076538 71.79182617 -96.17993164 71.21679688 C-97.98574631 70.26119067 -99.80869356 69.33815347 -101.6328125 68.41796875 C-104.46349871 65.52655824 -104.34927411 64.65511326 -104.3671875 60.73828125 C-104.27302986 59.1569195 -104.15955326 57.57610704 -104 56 C-103.36835937 55.64921387 -102.73671875 55.29842773 -102.0859375 54.93701172 C-88.33551902 47.2915611 -74.6710403 39.52253152 -61.09765625 31.56640625 C-53.67461207 27.2167881 -46.22113398 22.92011258 -38.75732422 18.64086914 C-33.20324627 15.45089691 -27.68102703 12.21911073 -22.19921875 8.90625 C-21.10544922 8.25076172 -20.01167969 7.59527344 -18.88476562 6.91992188 C-16.79935331 5.66765535 -14.72082464 4.40383172 -12.65039062 3.12695312 C-11.71775391 2.56943359 -10.78511719 2.01191406 -9.82421875 1.4375 C-9.01041748 0.94121094 -8.19661621 0.44492188 -7.3581543 -0.06640625 C-4.35314335 -1.25609068 -3.05090449 -1.02151338 0 0 Z " fill="#FEB74E" transform="translate(182,138)"/>
<path d="M0 0 C0.33 0 0.66 0 1 0 C1.12422668 6.24382388 1.21463541 12.48691769 1.2746582 18.73168945 C1.29969737 20.8529108 1.33373907 22.97404677 1.37719727 25.0949707 C1.43831672 28.15597678 1.4663163 31.21583568 1.48828125 34.27734375 C1.51408768 35.21521225 1.5398941 36.15308075 1.56648254 37.11936951 C1.56898968 43.09588764 0.47187964 46.91116138 -2.82575989 51.91993713 C-5.21552548 56.15319626 -5.18315889 60.73200099 -5.25 65.5 C-5.28867187 67.15515625 -5.28867187 67.15515625 -5.328125 68.84375 C-4.94943815 72.48635687 -4.27071881 74.13794817 -2 77 C0.89245311 79.32103301 0.89245311 79.32103301 4.25 81.3125 C5.34828125 82.00988281 6.4465625 82.70726562 7.578125 83.42578125 C12.01058217 85.46491394 15.54562063 85.77211583 20.22265625 84.30078125 C31.49764659 78.24436393 37.1870209 69.97640537 41.3125 57.875 C42.87690883 51.33292672 43.26650162 44.05447116 40 38 C38.68 37.34 37.36 36.68 36 36 C36 30.72 36 25.44 36 20 C41.63704301 22.81852151 45.38467373 25.03282564 47.75390625 30.8515625 C50.12558357 39.17731086 49.23662514 46.83215212 46.375 54.875 C45.96459473 56.05171265 45.96459473 56.05171265 45.54589844 57.25219727 C39.26589825 74.74210594 28.97899044 85.77671612 13 95 C11.98454102 95.58974609 10.96908203 96.17949219 9.92285156 96.78710938 C-35.38996903 123.03926108 -35.38996903 123.03926108 -47 122 C-51.20171318 120.78487041 -53.49913066 118.78469529 -55.875 115.0625 C-60.06320542 102.62958832 -57.41753021 90.26134674 -52.55859375 78.515625 C-43.99684102 61.26833517 -29.73358884 51.96246412 -13.5 42.5625 C-12.4171875 41.92634766 -11.334375 41.29019531 -10.21875 40.63476562 C-8.671875 39.73467773 -8.671875 39.73467773 -7.09375 38.81640625 C-6.16240234 38.27443604 -5.23105469 37.73246582 -4.27148438 37.17407227 C-2 36 -2 36 0 36 C0 24.12 0 12.24 0 0 Z " fill="#EFA840" transform="translate(384,238)"/>
<path d="M0 0 C0 37.29 0 74.58 0 113 C-5.445 113.99 -5.445 113.99 -11 115 C-13.94611895 116.1557969 -13.94611895 116.1557969 -16.3125 117.6875 C-20.57050039 120.23572417 -24.9098842 122.51239752 -29.35546875 124.70703125 C-29.99754272 125.02595337 -30.6396167 125.34487549 -31.30114746 125.67346191 C-32.86657102 126.45071037 -34.43316425 127.22560229 -36 128 C-36.35115454 114.07493017 -36.6142679 100.15055081 -36.77718258 86.2219553 C-36.85538843 79.75358347 -36.9613924 73.28819031 -37.1315918 66.8215332 C-37.294905 60.57724359 -37.38432345 54.33581258 -37.42315865 48.08955193 C-37.45082046 45.71015332 -37.50484699 43.33090701 -37.58595085 40.95273018 C-38.18067042 22.78705326 -38.18067042 22.78705326 -34.5455761 18.14114189 C-31.0299835 15.11717045 -27.1553362 13.30461081 -22.83122635 11.71446991 C-20.18389626 10.68158957 -17.85017916 9.2216958 -15.44921875 7.71484375 C-13.86262953 6.78794836 -12.27541359 5.86212471 -10.6875 4.9375 C-9.86572266 4.45345703 -9.04394531 3.96941406 -8.19726562 3.47070312 C-7.41416016 3.01501953 -6.63105469 2.55933594 -5.82421875 2.08984375 C-5.13416748 1.68628662 -4.44411621 1.28272949 -3.7331543 0.86694336 C-2 0 -2 0 0 0 Z " fill="#494D53" transform="translate(376,120)"/>
<path d="M0 0 C0.33 0 0.66 0 1 0 C1.81105134 31.16100828 1.81105134 31.16100828 -7 42 C-19.07312412 54.7085517 -33.52684221 62.63595892 -49.9375 68.3125 C-50.59129639 68.54291992 -51.24509277 68.77333984 -51.91870117 69.01074219 C-65.77739452 73.5151069 -79.85387171 74.52424505 -94.3125 74.375 C-95.52348862 74.36802094 -95.52348862 74.36802094 -96.75894165 74.36090088 C-125.73740681 74.16547529 -154.63453032 68.79758242 -177 49 C-177.65484375 48.48695313 -178.3096875 47.97390625 -178.984375 47.4453125 C-186.04412206 41.86388854 -189.9447376 34.7136125 -192 26 C-192.32788186 22.29909218 -192.28822695 18.64890062 -192.1875 14.9375 C-192.17396484 13.97650391 -192.16042969 13.01550781 -192.14648438 12.02539062 C-192.11152306 9.68298248 -192.06246104 7.34180844 -192 5 C-190.07687889 7.88468167 -189.11508696 10.32519105 -187.9375 13.5625 C-181.61271055 28.84894447 -167.3395809 37.68024422 -152.74609375 44.109375 C-134.88205262 51.51595655 -116.70586082 54.40793006 -97.5 54.3125 C-96.70286591 54.31001251 -95.90573181 54.30752502 -95.08444214 54.30496216 C-65.77920726 54.16351876 -36.27680978 48.54211639 -13.59765625 28.640625 C-5.7262269 20.63899156 -1.41789988 11.05961903 0 0 Z " fill="#4F5258" transform="translate(455,324)"/>
<path d="M0 0 C0.33 0 0.66 0 1 0 C1.03867187 1.74023438 1.03867187 1.74023438 1.078125 3.515625 C1.53623394 17.89129944 3.38569718 29.42149584 14 40 C24.52260987 49.15949137 37.58836405 55.38320466 51 59 C51.63421875 59.18191895 52.2684375 59.36383789 52.921875 59.55126953 C82.54375846 67.78498385 116.1971402 64.58430163 144 52 C145.03640625 51.53851563 146.0728125 51.07703125 147.140625 50.6015625 C159.17732581 44.65199324 169.43880373 34.74728295 174 22 C174.3589674 19.39787925 174.3589674 19.39787925 174.4140625 16.69921875 C174.47207031 15.23452148 174.47207031 15.23452148 174.53125 13.74023438 C174.5621875 12.73283203 174.593125 11.72542969 174.625 10.6875 C174.68300781 9.14739258 174.68300781 9.14739258 174.7421875 7.57617188 C174.83614897 5.05095735 174.9218154 2.52574408 175 0 C175.66 0 176.32 0 177 0 C183.5836757 11.53399674 186.47616369 19.51468666 183.08203125 32.78125 C181.42680072 37.70511267 178.99677071 41.78289483 176 46 C175.29875 47.010625 174.5975 48.02125 173.875 49.0625 C158.38969728 66.40408507 134.02472234 73.14697529 112 77 C110.62811523 77.25801392 110.62811523 77.25801392 109.22851562 77.52124023 C77.15273557 82.27778929 40.00303033 76.5827387 13.09375 57.9921875 C3.19054495 50.38581013 -5.64442769 40.63443331 -8 28 C-9.05933552 18.17967338 -7.00857481 9.85193404 -1.39453125 1.65625 C-0.93433594 1.1096875 -0.47414063 0.563125 0 0 Z " fill="#5E626A" transform="translate(271,389)"/>
<path d="M0 0 C3.50718525 1.33016321 6.72964362 2.87471393 9.9921875 4.72265625 C10.93811768 5.25729492 11.88404785 5.79193359 12.85864258 6.34277344 C13.85404053 6.9102832 14.84943848 7.47779297 15.875 8.0625 C17.405802 8.93116699 17.405802 8.93116699 18.9675293 9.81738281 C26.15101563 13.90800278 33.2712243 18.09216058 40.33203125 22.390625 C42.85463987 23.96025927 42.85463987 23.96025927 45 25 C47.25962827 23.99908242 47.25962827 23.99908242 49.75390625 22.47265625 C50.69041016 21.92802734 51.62691406 21.38339844 52.59179688 20.82226562 C53.57212891 20.24154297 54.55246094 19.66082031 55.5625 19.0625 C57.50032149 17.92671072 59.4390727 16.79250567 61.37890625 15.66015625 C62.2407251 15.15105713 63.10254395 14.64195801 63.99047852 14.11743164 C66 13 66 13 67 13 C67 29.17 67 45.34 67 62 C46 74 46 74 41 73 C38.91219534 71.96357399 36.86254577 70.84874216 34.84375 69.68359375 C34.26016724 69.34884537 33.67658447 69.01409698 33.07531738 68.66920471 C31.2130396 67.59847559 29.35664382 66.51796221 27.5 65.4375 C25.67849871 64.39001532 23.8559908 63.34433182 22.03242493 62.30044556 C20.81872012 61.59487708 19.61289272 60.87558878 18.41520691 60.14315796 C15.40685071 58.31132865 12.53944886 56.77010853 9.22387695 55.56689453 C5.08661909 53.7964044 2.82705598 52.5322654 0 49 C-2.15967608 40.93274617 -1.21319995 32.24546273 -0.8125 24 C-0.74725022 21.67594208 -0.68794166 19.35170927 -0.63476562 17.02734375 C-0.49190136 11.3477327 -0.27480839 5.67467576 0 0 Z " fill="#44484E" transform="translate(78,231)"/>
<path d="M0 0 C2.99940221 1.21257387 5.66857078 2.56870249 8.4519043 4.2121582 C9.93400391 5.08203369 9.93400391 5.08203369 11.44604492 5.96948242 C12.48051758 6.58452637 13.51499023 7.19957031 14.58081055 7.83325195 C15.64235352 8.4586084 16.70389648 9.08396484 17.79760742 9.72827148 C20.91704915 11.56877998 24.03131797 13.41768089 27.14331055 15.27075195 C28.42165771 16.03186279 28.42165771 16.03186279 29.72583008 16.80834961 C33.87343875 19.28194967 38.01284215 21.76864129 42.14331055 24.27075195 C38.649355 28.28742526 34.58022632 30.42884027 29.95581055 32.89575195 C28.33656576 33.78109087 26.71809492 34.66784655 25.1003418 35.5559082 C24.27743652 36.00595215 23.45453125 36.45599609 22.60668945 36.91967773 C2.42823427 47.77635339 2.42823427 47.77635339 -11.85668945 65.27075195 C-16.24528822 64.31854294 -19.85455253 62.21372184 -23.73168945 60.02075195 C-24.50311279 59.58690186 -25.27453613 59.15305176 -26.06933594 58.70605469 C-28.66997451 57.23599405 -31.26386296 55.75454555 -33.85668945 54.27075195 C-34.83943848 53.71081543 -35.8221875 53.15087891 -36.8347168 52.57397461 C-39.86972425 50.83864854 -42.89567837 49.08852004 -45.91918945 47.33325195 C-46.88904785 46.77798828 -47.85890625 46.22272461 -48.8581543 45.65063477 C-49.75614746 45.124375 -50.65414062 44.59811523 -51.5793457 44.0559082 C-52.38122314 43.59063721 -53.18310059 43.12536621 -54.00927734 42.64599609 C-55.85668945 41.27075195 -55.85668945 41.27075195 -56.85668945 38.27075195 C-55.59106445 35.8527832 -55.59106445 35.8527832 -53.60668945 33.08325195 C-52.9827832 32.18219727 -52.35887695 31.28114258 -51.71606445 30.3527832 C-44.43220202 21.71931447 -33.33473825 16.46247596 -23.60668945 11.02075195 C-21.75855317 9.97754295 -19.91146195 8.93250422 -18.0645752 7.88708496 C-16.33321036 6.91093647 -14.59600996 5.94516092 -12.85864258 4.97973633 C-10.46059478 3.61454972 -8.17737407 2.17193742 -5.87231445 0.66137695 C-2.85668945 -0.72924805 -2.85668945 -0.72924805 0 0 Z " fill="#5D626A" transform="translate(235.856689453125,96.729248046875)"/>
<path d="M0 0 C2.9543418 1.32042929 5.5348615 2.89981217 8 5 C8 5.33 8 5.66 8 6 C7.443125 6.07476562 6.88625 6.14953125 6.3125 6.2265625 C-2.27207826 7.70566213 -8.16289976 12.26121337 -13.6171875 18.9375 C-18.35441904 26.00320128 -21.1217844 33.46458591 -21.25 41.9375 C-21.27578125 42.95714844 -21.3015625 43.97679687 -21.328125 45.02734375 C-20.9500264 48.45273704 -20.04635343 50.25081023 -18 53 C-17.01 53.66 -16.02 54.32 -15 55 C-14.61968327 58.03487587 -14.61968327 58.03487587 -14.61231995 62.02017212 C-14.60693441 62.75127587 -14.60154887 63.48237962 -14.59600013 64.23563802 C-14.5816325 66.69843903 -14.58884581 69.16070916 -14.59594727 71.62353516 C-14.59024802 73.38423091 -14.5832855 75.14492296 -14.57514954 76.90560913 C-14.5571468 81.69931629 -14.55840065 86.49284111 -14.56409192 91.28657198 C-14.5671757 95.28731022 -14.56109988 99.28801303 -14.55505317 103.28874624 C-14.54098417 112.73110148 -14.54258695 122.17336632 -14.55395508 131.61572266 C-14.56541938 141.35300356 -14.55139446 151.09000849 -14.5245586 160.82725298 C-14.50238595 169.18575531 -14.49576833 177.54417113 -14.50163502 185.90270078 C-14.50500438 190.89520896 -14.50259171 195.88754052 -14.48538399 200.88002396 C-14.46989369 205.57997886 -14.47389358 210.27952655 -14.49268913 214.97946548 C-14.49637026 216.70154239 -14.49328045 218.42364958 -14.48280334 220.14569855 C-14.39379557 235.98962325 -14.39379557 235.98962325 -19 243 C-21.23708396 249.8732127 -22.06812302 257.53964513 -18.953125 264.2578125 C-18.63859375 264.83273437 -18.3240625 265.40765625 -18 266 C-24.25209864 263.79337695 -29.03490356 261.07672381 -32 255 C-33.09275348 246.729356 -32.46734569 237.79827207 -27.45939636 230.86804199 C-25.60555482 227.22482653 -25.61998506 224.09831686 -25.70043945 220.11132812 C-25.70413481 219.31049301 -25.70783016 218.5096579 -25.7116375 217.68455505 C-25.72737254 214.96649147 -25.76439913 212.24911003 -25.80078125 209.53125 C-25.81611839 207.55278653 -25.82984409 205.57431004 -25.84211731 203.5958252 C-25.87075414 199.17855747 -25.90686726 194.76142156 -25.9463501 190.34423828 C-26.01042802 182.50421757 -26.02061237 174.6644369 -26.02490234 166.82421875 C-26.03330324 153.60042696 -26.07076315 140.37701875 -26.13213921 127.15336609 C-26.16709659 119.4876251 -26.19216888 111.8220756 -26.19555664 104.15625 C-26.19859374 97.33425241 -26.2189687 90.51256921 -26.26052457 83.69069338 C-26.28172193 80.11682358 -26.2945176 76.54340029 -26.28615379 72.96946716 C-26.27724208 69.03076208 -26.30715371 65.09288195 -26.34057617 61.15429688 C-26.33195053 59.98997131 -26.32332489 58.82564575 -26.31443787 57.6260376 C-26.31180791 51.2621512 -26.31180791 51.2621512 -29.47871399 45.92785645 C-30.31073837 45.29166382 -31.14276276 44.65547119 -32 44 C-34.80015846 35.59952461 -33.12799033 27.59045821 -29.48046875 19.75390625 C-23.32448677 8.3028052 -13.92162931 -2.11941222 0 0 Z " fill="#5E626A" transform="translate(410,55)"/>
<path d="M0 0 C0.51338373 7.46417185 0.90230723 14.92649855 1.13986778 22.40437603 C1.25404493 25.87990573 1.40804625 29.34326211 1.65966797 32.81176758 C3.24394371 55.21212031 3.24394371 55.21212031 -2.2142334 61.58551025 C-7.30990741 65.68676551 -16.11871359 72 -23 72 C-23.51338373 64.53582815 -23.90230723 57.07350145 -24.13986778 49.59562397 C-24.25404493 46.12009427 -24.40804625 42.65673789 -24.65966797 39.18823242 C-26.24394371 16.78787969 -26.24394371 16.78787969 -20.7857666 10.41448975 C-15.69009259 6.31323449 -6.88128641 0 0 0 Z " fill="#535860" transform="translate(167,348)"/>
<path d="M0 0 C-0.26654879 1.55027227 -0.59123361 3.09056462 -0.9375 4.625 C-1.11152344 5.48351562 -1.28554687 6.34203125 -1.46484375 7.2265625 C-3.89129014 11.61021882 -7.7590046 13.49566758 -12 16 C-12.90854736 16.54076172 -13.81709473 17.08152344 -14.75317383 17.63867188 C-17.8020334 19.42767849 -20.86713969 21.18566511 -23.9375 22.9375 C-25.6673456 23.92992138 -27.39718843 24.92234765 -29.12686157 25.91506958 C-30.90939872 26.93764091 -32.69268197 27.95890134 -34.47607422 28.97998047 C-39.99189791 32.13969913 -45.49520235 35.32112599 -51 38.5 C-53.1418728 39.73577117 -55.28380018 40.97144775 -57.42578125 42.20703125 C-61.40462432 44.50249458 -65.38330773 46.79823414 -69.36178589 49.09432983 C-71.15066918 50.12673478 -72.93958717 51.15907956 -74.72851562 52.19140625 C-76.97337636 53.48685948 -79.2181719 54.7824257 -81.46289062 56.078125 C-83.44836483 57.22383301 -85.43630783 58.36527847 -87.42724609 59.50146484 C-88.99722392 60.41591957 -90.55208844 61.35789039 -92.07666016 62.34619141 C-94.85713454 64.12359769 -96.49453629 65.03814903 -99.83691406 64.78588867 C-103.24702069 63.93862615 -105.72106453 62.71630329 -108.74609375 60.9375 C-109.82455566 60.3098877 -110.90301758 59.68227539 -112.01416016 59.03564453 C-113.1438623 58.36388184 -114.27356445 57.69211914 -115.4375 57 C-116.60445048 56.30938746 -117.77160638 55.61912192 -118.93896484 54.92919922 C-121.23905328 53.56968395 -123.53722553 52.20710327 -125.83447266 50.84277344 C-128.54203769 49.26659722 -131.26655432 47.7701223 -134.04296875 46.3203125 C-143.55366456 41.26884006 -143.55366456 41.26884006 -144.89453125 37.45703125 C-144.93491508 35.08907004 -144.7174595 33.24803977 -144 31 C-140.49281475 32.33016321 -137.27035638 33.87471393 -134.0078125 35.72265625 C-133.06220459 36.25745605 -132.11659668 36.79225586 -131.14233398 37.34326172 C-130.14661377 37.91061035 -129.15089355 38.47795898 -128.125 39.0625 C-126.58984741 39.9289917 -126.58984741 39.9289917 -125.02368164 40.81298828 C-120.41623225 43.42584418 -115.83969493 46.06202644 -111.36328125 48.89453125 C-110.35273682 49.52959595 -110.35273682 49.52959595 -109.32177734 50.17749023 C-108.10271839 50.95223553 -106.89259199 51.74129843 -105.69384766 52.54711914 C-102.97419674 54.27481616 -101.39429647 55.03222048 -98.14379883 54.76660156 C-94.8642869 53.96690696 -92.53933459 52.86264369 -89.640625 51.1484375 C-88.62081543 50.55216553 -87.60100586 49.95589355 -86.55029297 49.34155273 C-84.91664795 48.36810913 -84.91664795 48.36810913 -83.25 47.375 C-82.09448721 46.69571783 -80.93838863 46.01743127 -79.78173828 45.34008789 C-77.37925109 43.93218406 -74.97933759 42.52003309 -72.58105469 41.10498047 C-67.0372772 37.83942922 -61.45338822 34.64341689 -55.875 31.4375 C-47.38339773 26.54211528 -38.90433775 21.62558958 -30.4375 16.6875 C-29.45297852 16.11362549 -28.46845703 15.53975098 -27.45410156 14.94848633 C-22.88956917 12.2843071 -18.33276876 9.60847861 -13.79296875 6.90234375 C-12.60199585 6.19428589 -12.60199585 6.19428589 -11.38696289 5.47192383 C-9.92158983 4.59934281 -8.45838631 3.72310379 -6.99780273 2.8425293 C-2.22194217 0 -2.22194217 0 0 0 Z " fill="#F0A93F" transform="translate(222,164)"/>
<path d="M0 0 C8.26984415 4.00269272 16.2328786 8.362869 24.125 13.0625 C26.14658529 14.2648385 28.17000507 15.46409824 30.1953125 16.66015625 C31.07203613 17.18230713 31.94875977 17.70445801 32.85205078 18.24243164 C37.15450709 20.64458636 41.59259917 22.79629958 46 25 C45.67 40.84 45.34 56.68 45 73 C44.67 73 44.34 73 44 73 C44.09539062 72.43716309 44.19078125 71.87432617 44.2890625 71.29443359 C45.20889372 64.73395131 45.66679331 58.19763671 43 52 C35.3416757 43.99567781 23.28707134 39.70613537 13.1796875 35.65234375 C2.90707849 31.19495171 2.90707849 31.19495171 0 27 C-2.24825464 18.20043911 -1.16538946 8.90508527 0 0 Z " fill="#5D626A" transform="translate(78,204)"/>
<path d="M0 0 C-0.33 0.33 -0.66 0.66 -1 1 C-1.09543095 2.39143689 -1.12188575 3.78768367 -1.12025452 5.18238831 C-1.12162918 6.08407745 -1.12300385 6.9857666 -1.12442017 7.91477966 C-1.12082489 8.91171341 -1.11722961 9.90864716 -1.11352539 10.93579102 C-1.11367142 11.97956909 -1.11381744 13.02334717 -1.1139679 14.09875488 C-1.11326826 17.56715943 -1.10547353 21.03551103 -1.09765625 24.50390625 C-1.09579225 26.90144318 -1.09436826 29.2989805 -1.09336853 31.69651794 C-1.08954194 38.02095584 -1.07971046 44.34537094 -1.06866455 50.6697998 C-1.05845345 57.11775402 -1.05387156 63.56571191 -1.04882812 70.01367188 C-1.03808832 82.67579129 -1.02101021 95.33789375 -1 108 C-4.96 109.98 -8.92 111.96 -13 114 C-13.25495566 100.03987707 -13.45036327 86.08030844 -13.56993389 72.11833096 C-13.62732553 65.63493521 -13.70515326 59.15313286 -13.82983398 52.6706543 C-13.94942587 46.41354309 -14.01513988 40.15796334 -14.04364967 33.89979744 C-14.06396339 31.51337631 -14.10363468 29.1270384 -14.16303062 26.74127007 C-14.61031157 8.02971136 -14.61031157 8.02971136 -10.54824829 2.90969849 C-3.52930678 -1.76465339 -3.52930678 -1.76465339 0 0 Z " fill="#5C616A" transform="translate(353,134)"/>
<path d="M0 0 C2.5 1.8125 2.5 1.8125 4 5 C5.1237749 12.38647877 3.96125754 18.68277588 0 25 C-8.25924175 35.9420581 -8.25924175 35.9420581 -14.9375 37 C-18.20644299 37.26273747 -18.98357345 37.00923993 -22 35.3125 C-25.0800939 30.21109448 -24.96473938 25.80231741 -24 20 C-20.39525155 9.25129553 -12.65856241 -2.07640451 0 0 Z " fill="#8F97A5" transform="translate(258,148)"/>
<path d="M0 0 C2.92260173 2.17321667 3.82686878 3.87375461 4.37890625 7.46484375 C4.67138119 14.19176747 3.2906011 19.18167073 0 25 C-0.598125 26.0725 -1.19625 27.145 -1.8125 28.25 C-5.44182987 32.81258613 -9.31381055 35.9517976 -15.125 37.125 C-19 37 -19 37 -22 35.3125 C-25.0800939 30.21109448 -24.96473938 25.80231741 -24 20 C-21.31181133 11.98431015 -17.10849893 5.68342467 -10 1 C-6.37671381 -0.20776206 -3.80388473 -0.40040892 0 0 Z " fill="#5E626A" transform="translate(322,111)"/>
<path d="M0 0 C7.64026278 3.13796507 12.72153442 9.45078503 15.9375 17 C17.68897002 22.45022658 18.02943653 27.75395667 15.625 33 C14 35 14 35 12 36 C8.02429443 36.38227938 5.59919563 36.29959782 2 34.5 C-4.73864475 28.88446271 -10.42346715 22.88063505 -11.3125 13.8125 C-11.63356955 4.82255274 -11.63356955 4.82255274 -9.1796875 1.63671875 C-5.96079474 -0.78033513 -3.94075649 -0.53433986 0 0 Z " fill="#EEA73F" transform="translate(98,249)"/>
<path d="M0 0 C6.59685232 0.96542976 11.82177546 4.56540627 17.5 7.875 C19.19189453 8.803125 19.19189453 8.803125 20.91796875 9.75 C28.76300292 14.33632767 32.1863823 18.39836875 35 27 C35.62405239 28.50039449 36.24895506 30.00043582 36.875 31.5 C38 35 38 35 37 38 C33.49668886 35.995291 29.9954253 33.98705318 26.49584961 31.97583008 C25.31050563 31.29522147 24.12465082 30.61550156 22.93823242 29.93676758 C15.9626107 25.94521105 9.08022676 21.85966851 2.33398438 17.49023438 C-0.71708389 15.54214644 -3.83614249 13.75769862 -7 12 C-5.44298069 7.32894208 -2.91552627 3.91294315 0 0 Z " fill="#474B52" transform="translate(85,299)"/>
<path d="M0 0 C0.99 0.66 1.98 1.32 3 2 C2.74730764 5.70615462 2.59540217 7.46591897 -0.22827148 9.9987793 C-4.67936253 13.21251957 -9.35208153 15.99852362 -14.0625 18.8125 C-15.05572266 19.42287109 -16.04894531 20.03324219 -17.07226562 20.66210938 C-18.02939453 21.23380859 -18.98652344 21.80550781 -19.97265625 22.39453125 C-21.27601929 23.18114136 -21.27601929 23.18114136 -22.60571289 23.98364258 C-25.29033849 25.12324657 -26.33175632 25.04913564 -29 24 C-28.63193064 17.62013111 -28.63193064 17.62013111 -26.1171875 15.15234375 C-21.67419683 12.08456448 -17.01681831 9.45648636 -12.3125 6.8125 C-10.86907227 5.99362305 -10.86907227 5.99362305 -9.39648438 5.15820312 C-2.46056548 1.23028274 -2.46056548 1.23028274 0 0 Z " fill="#DE9529" transform="translate(367,106)"/>
<path d="M0 0 C0 2.625 0 2.625 -1 6 C-6.11870576 10.87539284 -12.67730479 14.3958889 -18.75 17.9375 C-19.58660156 18.44345703 -20.42320312 18.94941406 -21.28515625 19.47070312 C-22.09339844 19.94314453 -22.90164063 20.41558594 -23.734375 20.90234375 C-24.45850586 21.33023193 -25.18263672 21.75812012 -25.92871094 22.19897461 C-28.39453529 23.15257783 -29.55492084 22.89021544 -32 22 C-32.05617161 19.19141972 -32.00810765 17.56466764 -31 15 C-28.3812106 12.42288895 -25.17456083 10.81288372 -22 9 C-20.596473 8.12637605 -19.19563724 7.24842017 -17.796875 6.3671875 C-16.28210278 5.43091058 -14.76647018 4.49602426 -13.25 3.5625 C-12.51716797 3.10061279 -11.78433594 2.63872559 -11.02929688 2.1628418 C-4.47636632 -1.77116069 -4.47636632 -1.77116069 0 0 Z " fill="#DE9529" transform="translate(370,81)"/>
<path d="M0 0 C0.8125 2.125 0.8125 2.125 1 5 C-3.02969914 11.14507266 -8.74928678 14.29261422 -15 17.9375 C-15.98484375 18.53884766 -16.9696875 19.14019531 -17.984375 19.75976562 C-18.93828125 20.32244141 -19.8921875 20.88511719 -20.875 21.46484375 C-21.73867188 21.976521 -22.60234375 22.48819824 -23.4921875 23.01538086 C-26.45598349 24.17902857 -27.99508979 23.90773329 -31 23 C-30.5574908 18.1323988 -29.6518517 16.19424866 -26 13 C-24.26423102 11.86425201 -22.4880107 10.78880481 -20.68359375 9.765625 C-19.67232422 9.19199219 -18.66105469 8.61835937 -17.61914062 8.02734375 C-16.56919922 7.44082031 -15.51925781 6.85429688 -14.4375 6.25 C-13.38369141 5.64800781 -12.32988281 5.04601562 -11.24414062 4.42578125 C-3.38110296 0 -3.38110296 0 0 0 Z " fill="#DF962A" transform="translate(369,93)"/>
<path d="M0 0 C5.63704301 2.81852151 9.38467373 5.03282564 11.75390625 10.8515625 C14.63092851 20.95131897 12.3700813 29.26588125 9 39 C8.01 39 7.02 39 6 39 C6.02320313 37.90300781 6.04640625 36.80601562 6.0703125 35.67578125 C6.08907921 34.221361 6.10727844 32.76693336 6.125 31.3125 C6.14175781 30.59126953 6.15851563 29.87003906 6.17578125 29.12695312 C6.21356705 24.98940779 6.12861547 21.60793629 4 18 C2.68 17.34 1.36 16.68 0 16 C0 10.72 0 5.44 0 0 Z " fill="#F0A93E" transform="translate(420,258)"/>
<path d="M0 0 C2.25 0.8125 2.25 0.8125 3.25 1.8125 C3.80485301 8.2487949 2.98073384 11.52729372 -0.75 16.8125 C-3.30386012 19.45148879 -4.2852409 19.78568697 -8 20 C-9.36125 19.9071875 -9.36125 19.9071875 -10.75 19.8125 C-12.35819739 16.59610522 -12.21861231 13.30105833 -11.75 9.8125 C-9.2807716 5.056949 -5.87318929 -0.40044472 0 0 Z " fill="#5E626A" transform="translate(354.75,316.1875)"/>
<path d="M0 0 C0.42034404 6.09498863 0.07814737 9.12887953 -4 14 C-5.9375 15.9375 -5.9375 15.9375 -8 17 C-12.41025641 16.58974359 -12.41025641 16.58974359 -14 15 C-14.49898383 10.17648968 -14.5301324 7.18433442 -11.75 3.125 C-7.92254546 -1.57330796 -5.68435037 -2.84217518 0 0 Z " fill="#8D95A2" transform="translate(414,78)"/>
<path d="M0 0 C0.66 0.66 1.32 1.32 2 2 C1.6436462 8.29558375 0.04550064 12.0069481 -4.4375 16.375 C-7 18 -7 18 -9.25 17.8125 C-11 17 -11 17 -12 16 C-12.51617526 9.90913193 -12.05630193 6.86756232 -8 2 C-4.77626323 -0.14915785 -3.73296326 -0.38286803 0 0 Z " fill="#8D95A2" transform="translate(413,290)"/>
<path d="M0 0 C0.69921875 1.58203125 0.69921875 1.58203125 1 4 C-0.29296875 7.19921875 -0.29296875 7.19921875 -2.1875 10.6875 C-2.79980469 11.84636719 -3.41210938 13.00523437 -4.04296875 14.19921875 C-6 17 -6 17 -8.23828125 17.89453125 C-9.11033203 17.94673828 -9.11033203 17.94673828 -10 18 C-9.731875 17.47792969 -9.46375 16.95585937 -9.1875 16.41796875 C-7.14983675 12.26891101 -5.31643081 8.02367825 -3.4375 3.80078125 C-2 1 -2 1 0 0 Z " fill="#DE9F42" transform="translate(427,296)"/>
</svg>
